{"title":"The Interceptor (2015) S01E07 x264 RB58.mp4","uid":12150376,"size":671912413,"categoryP":"video","categoryS":"tv_shows","magnet":"?xt=urn:btih:28004b1f8b448b86328a576387b3e0181a24530d&amp;dn=The+Interceptor+%282015%29+S01E07+x264+RB58.mp4&amp;tr=udp%3A%2F%2Ftracker.openbittorrent.com%3A80&amp;tr=udp%3A%2F%2Fopen.demonii.com%3A1337&amp;tr=udp%3A%2F%2Ftracker.coppersurfer.tk%3A6969&amp;tr=udp%3A%2F%2Fexodus.desync.com%3A6969","seeders":0,"leechers":1,"uploader":"RedBaron58","files":1,"time":1437613033,"description":"The Interceptor (2015) S01E07 x264 mp4\n &lt;a href=&quot;\nhttp://www.imdb.com/title/tt3654614/&quot; rel=&quot;nofollow&quot; target=&quot;_NEW&quot;&gt;\nhttp://www.imdb.com/title/tt3654614/&lt;/a&gt;\n\nTrailer:\n\n\nPlease be patient My intial upload speed is limited.\nThank you for your kind comments and feedback on my other torrents, your feedback is welcome.\n\n\nAbout the Episode:\nAsh returns to work following his violent encounter with Yorkie and becomes convinced a big shipment \nof drugs is being planned. Cartwright is sceptical, so Ash secretly begins to investigate on his own. \nKim is horrified to discover that ex-boyfriend Connor has used their relationship to feed intelligence \nto Stannard, while extensive surveillance on Docker yields nothing, but the discovery of a new player \nkeen to muscle in on Roach's organisation could lead them to finally putting a face to the figure \nat the top of their board\n\nStarring O-T Fagbenle\n\n\nI hope you enjoy.\n\n\nTechnical:\n\nGeneral\nComplete name                            : H:The Interceptor (2015) S01E07 x264 RB58.mp4\nFormat                                   : MPEG-4\nFormat profile                           : Base Media\nCodec ID                                 : isom\nFile size                                : 641 MiB\nDuration                                 : 58mn 56s\nOverall bit rate                         : 1 520 Kbps\nWriting application                      : Lavf54.63.104\n\nVideo\nID                                       : 1\nFormat                                   : AVC\nFormat/Info                              : Advanced Video Codec\nFormat profile                           : &lt;a class=&quot;__cf_email__&quot; href=&quot;/cdn-cgi/l/email-protection&quot; data-cfemail=&quot;e1a9888689a1add2cfd1&quot;&gt;[email&amp;#160;protected]&lt;/a&gt;&lt;script data-cfhash='f9e31' type=&quot;text/javascript&quot;&gt;\n/* &lt;![CDATA[ */!function(){try{var t=&quot;currentScript&quot;in document?document.currentScript:function(){for(var t=document.getElementsByTagName(&quot;script&quot;),e=t.length;e--;)if(t[e].getAttribute(&quot;data-cfhash&quot;))return t[e]}();if(t&amp;&amp;t.previousSibling){var e,r,n,i,c=t.previousSibling,a=c.getAttribute(&quot;data-cfemail&quot;);if(a){for(e=&quot;&quot;,r=parseInt(a.substr(0,2),16),n=2;a.length-n;n+=2)i=parseInt(a.substr(n,2),16)^r,e+=String.fromCharCode(i);e=document.createTextNode(e),c.parentNode.replaceChild(e,c)}t.parentNode.removeChild(t);}}catch(u){}}()/* ]]&gt; */&lt;/script&gt;\nFormat settings, CABAC                   : Yes\nFormat settings, ReFrames                : 4 frames\nCodec ID                                 : avc1\nCodec ID/Info                            : Advanced Video Coding\nDuration                                 : 58mn 56s\nBit rate                                 : 1 400 Kbps\nWidth                                    : 832 pixels\nHeight                                   : 468 pixels\nDisplay aspect ratio                     : 16:9\nFrame rate mode                          : Constant\nFrame rate                               : 25.000 fps\nColor space                              : YUV\nChroma subsampling                       : 4:2:0\nBit depth                                : 8 bits\nScan type                                : Progressive\nBits/(Pixel*Frame)                       : 0.144\nStream size                              : 590 MiB (92%)\nWriting library                          : x264 core 123 r2189 35cf912\nEncoding settings                        : cabac=1 / ref=3 / deblock=1:0:0\n\nAudio\nID                                       : 2\nFormat                                   : AAC\nFormat/Info                              : Advanced Audio Codec\nFormat profile                           : LC\nCodec ID                                 : 40\nDuration                                 : 58mn 56s\nBit rate mode                            : Constant\nBit rate                                 : 112 Kbps\nChannel(s)                               : 2 channels\nChannel positions                        : Front: L R\nSampling rate                            : 48.0 KHz\nCompression mode                         : Lossy\nStream size                              : 47.2 MiB (7%)","torrent":{"xt":"urn:btih:28004b1f8b448b86328a576387b3e0181a24530d","amp;dn":"The+Interceptor+%282015%29+S01E07+x264+RB58.mp4","amp;tr":["udp%3A%2F%2Ftracker.openbittorrent.com%3A80","udp%3A%2F%2Fopen.demonii.com%3A1337","udp%3A%2F%2Ftracker.coppersurfer.tk%3A6969","udp%3A%2F%2Fexodus.desync.com%3A6969"],"infoHash":"28004b1f8b448b86328a576387b3e0181a24530d","infoHashBuffer":{"type":"Buffer","data":[40,0,75,31,139,68,139,134,50,138,87,99,135,179,224,24,26,36,83,13]},"announce":[],"urlList":[]}}